<?xml version="1.0" encoding="UTF-8"?>
<svg width="148px" height="64px" viewBox="0 0 148 64" version="1.1" xmlns="http://www.w3.org/2000/svg" xmlns:xlink="http://www.w3.org/1999/xlink">
    <!-- Generator: Sketch 47.1 (45422) - http://www.bohemiancoding.com/sketch -->
    <title>sleeve copy</title>
    <desc>Created with Sketch.</desc>
    <defs></defs>
    <g id="Page-1" stroke="none" stroke-width="1" fill="none" fill-rule="evenodd">
        <g id="sleeve-copy-2" fill="#321200">
            <path d="M4.12903226,63.655914 C9.46236559,65.0322581 7.56989247,49.4060523 7.56989247,31.827957 C7.56989247,14.2498617 9.6344086,-0.688172043 4.04644967,0.172043011 C-2.23655914,-0.516129032 0.688172043,14.2498617 0.688172043,31.827957 C0.688172043,49.4060523 -2.2037927e-14,65.7204301 4.12903226,63.655914 Z" id="Oval-2"></path>
            <path d="M12.0430108,63.655914 C17.3763441,65.0322581 15.483871,49.4060523 15.483871,31.827957 C15.483871,14.2498617 17.5483871,-0.688172043 11.9604282,0.172043011 C5.67741935,-0.516129032 8.60215054,14.2498617 8.60215054,31.827957 C8.60215054,49.4060523 7.91397849,65.7204301 12.0430108,63.655914 Z" id="Oval-2-Copy"></path>
            <path d="M20.9892473,63.655914 C26.3225806,65.0322581 24.4301075,49.4060523 24.4301075,31.827957 C24.4301075,14.2498617 26.4946237,-0.688172043 20.9066647,0.172043011 C14.6236559,-0.516129032 17.5483871,14.2498617 17.5483871,31.827957 C17.5483871,49.4060523 16.8602151,65.7204301 20.9892473,63.655914 Z" id="Oval-2-Copy-2"></path>
            <path d="M29.5913978,63.655914 C34.9247312,65.0322581 33.0322581,49.4060523 33.0322581,31.827957 C33.0322581,14.2498617 35.0967742,-0.688172043 29.5088153,0.172043011 C23.2258065,-0.516129032 26.1505376,14.2498617 26.1505376,31.827957 C26.1505376,49.4060523 25.4623656,65.7204301 29.5913978,63.655914 Z" id="Oval-2-Copy-3"></path>
            <path d="M37.1612903,63.655914 C42.4946237,65.0322581 40.6021505,49.4060523 40.6021505,31.827957 C40.6021505,14.2498617 42.6666667,-0.688172043 37.0787077,0.172043011 C30.7956989,-0.516129032 33.7204301,14.2498617 33.7204301,31.827957 C33.7204301,49.4060523 33.0322581,65.7204301 37.1612903,63.655914 Z" id="Oval-2-Copy-4"></path>
            <path d="M45.4193548,63.655914 C50.7526882,65.0322581 48.8602151,49.4060523 48.8602151,31.827957 C48.8602151,14.2498617 50.9247312,-0.688172043 45.3367723,0.172043011 C39.0537634,-0.516129032 41.9784946,14.2498617 41.9784946,31.827957 C41.9784946,49.4060523 41.2903226,65.7204301 45.4193548,63.655914 Z" id="Oval-2-Copy-5"></path>
            <path d="M53.3333333,63.655914 C58.6666667,65.0322581 56.7741935,49.4060523 56.7741935,31.827957 C56.7741935,14.2498617 58.8387097,-0.688172043 53.2507507,0.172043011 C46.9677419,-0.516129032 49.8924731,14.2498617 49.8924731,31.827957 C49.8924731,49.4060523 49.2043011,65.7204301 53.3333333,63.655914 Z" id="Oval-2-Copy-11"></path>
            <path d="M61.2473118,63.655914 C66.5806452,65.0322581 64.688172,49.4060523 64.688172,31.827957 C64.688172,14.2498617 66.7526882,-0.688172043 61.1647292,0.172043011 C54.8817204,-0.516129032 57.8064516,14.2498617 57.8064516,31.827957 C57.8064516,49.4060523 57.1182796,65.7204301 61.2473118,63.655914 Z" id="Oval-2-Copy-10"></path>
            <path d="M70.1935484,63.655914 C75.5268817,65.0322581 73.6344086,49.4060523 73.6344086,31.827957 C73.6344086,14.2498617 75.6989247,-0.688172043 70.1109658,0.172043011 C63.827957,-0.516129032 66.7526882,14.2498617 66.7526882,31.827957 C66.7526882,49.4060523 66.0645161,65.7204301 70.1935484,63.655914 Z" id="Oval-2-Copy-9"></path>
            <path d="M78.7956989,63.655914 C84.1290323,65.0322581 82.2365591,49.4060523 82.2365591,31.827957 C82.2365591,14.2498617 84.3010753,-0.688172043 78.7131163,0.172043011 C72.4301075,-0.516129032 75.3548387,14.2498617 75.3548387,31.827957 C75.3548387,49.4060523 74.6666667,65.7204301 78.7956989,63.655914 Z" id="Oval-2-Copy-8"></path>
            <path d="M86.3655914,63.655914 C91.6989247,65.0322581 89.8064516,49.4060523 89.8064516,31.827957 C89.8064516,14.2498617 91.8709677,-0.688172043 86.2830088,0.172043011 C80,-0.516129032 82.9247312,14.2498617 82.9247312,31.827957 C82.9247312,49.4060523 82.2365591,65.7204301 86.3655914,63.655914 Z" id="Oval-2-Copy-7"></path>
            <path d="M94.6236559,63.655914 C99.9569892,65.0322581 98.0645161,49.4060523 98.0645161,31.827957 C98.0645161,14.2498617 100.129032,-0.688172043 94.5410733,0.172043011 C88.2580645,-0.516129032 91.1827957,14.2498617 91.1827957,31.827957 C91.1827957,49.4060523 90.4946237,65.7204301 94.6236559,63.655914 Z" id="Oval-2-Copy-6"></path>
            <path d="M102.537634,63.655914 C107.870968,65.0322581 105.978495,49.4060523 105.978495,31.827957 C105.978495,14.2498617 108.043011,-0.688172043 102.455052,0.172043011 C96.172043,-0.516129032 99.0967742,14.2498617 99.0967742,31.827957 C99.0967742,49.4060523 98.4086022,65.7204301 102.537634,63.655914 Z" id="Oval-2-Copy-17"></path>
            <path d="M110.451613,63.655914 C115.784946,65.0322581 113.892473,49.4060523 113.892473,31.827957 C113.892473,14.2498617 115.956989,-0.688172043 110.36903,0.172043011 C104.086022,-0.516129032 107.010753,14.2498617 107.010753,31.827957 C107.010753,49.4060523 106.322581,65.7204301 110.451613,63.655914 Z" id="Oval-2-Copy-16"></path>
            <path d="M119.397849,63.655914 C124.731183,65.0322581 122.83871,49.4060523 122.83871,31.827957 C122.83871,14.2498617 124.903226,-0.688172043 119.315267,0.172043011 C113.032258,-0.516129032 115.956989,14.2498617 115.956989,31.827957 C115.956989,49.4060523 115.268817,65.7204301 119.397849,63.655914 Z" id="Oval-2-Copy-15"></path>
            <path d="M128,63.655914 C133.333333,65.0322581 131.44086,49.4060523 131.44086,31.827957 C131.44086,14.2498617 133.505376,-0.688172043 127.917417,0.172043011 C121.634409,-0.516129032 124.55914,14.2498617 124.55914,31.827957 C124.55914,49.4060523 123.870968,65.7204301 128,63.655914 Z" id="Oval-2-Copy-14"></path>
            <path d="M135.569892,63.655914 C140.903226,65.0322581 139.010753,49.4060523 139.010753,31.827957 C139.010753,14.2498617 141.075269,-0.688172043 135.48731,0.172043011 C129.204301,-0.516129032 132.129032,14.2498617 132.129032,31.827957 C132.129032,49.4060523 131.44086,65.7204301 135.569892,63.655914 Z" id="Oval-2-Copy-13"></path>
            <path d="M143.827957,63.655914 C149.16129,65.0322581 147.268817,49.4060523 147.268817,31.827957 C147.268817,14.2498617 149.333333,-0.688172043 143.745374,0.172043011 C137.462366,-0.516129032 140.387097,14.2498617 140.387097,31.827957 C140.387097,49.4060523 139.698925,65.7204301 143.827957,63.655914 Z" id="Oval-2-Copy-12"></path>
        </g>
    </g>
</svg>